<?xml version="1.0" standalone="no"?>
<!DOCTYPE svg PUBLIC "-//W3C//DTD SVG 20010904//EN"
 "http://www.w3.org/TR/2001/REC-SVG-20010904/DTD/svg10.dtd">
<svg version="1.0" xmlns="http://www.w3.org/2000/svg"
 width="512.000000pt" height="512.000000pt" viewBox="0 0 512.000000 512.000000"
 preserveAspectRatio="xMidYMid meet">
<metadata>
Created by potrace 1.14, written by Peter Selinger 2001-2017
</metadata>
<g transform="translate(0.000000,512.000000) scale(0.100000,-0.100000)"
fill="#000000" stroke="none">
<path d="M3058 3903 c-10 -11 -18 -25 -18 -31 0 -9 -34 -12 -114 -12 -457 0
-797 -122 -1057 -380 -255 -251 -398 -603 -432 -1063 l-11 -159 -141 -95
c-469 -321 -646 -474 -676 -586 -42 -156 103 -262 278 -203 72 24 179 96 291
196 l93 82 77 -28 c114 -41 321 -150 456 -238 306 -202 564 -267 869 -221 321
48 650 243 902 534 l70 81 391 0 c301 0 394 3 401 13 35 43 71 233 80 422 14
311 -50 632 -175 881 -187 371 -506 610 -947 709 -87 19 -100 25 -105 45 -9
40 -48 58 -135 66 -71 5 -82 4 -97 -13z m479 -218 c561 -186 877 -652 900
-1330 7 -191 -17 -435 -46 -467 -4 -4 -42 4 -86 18 -105 34 -315 77 -495 104
-80 12 -150 23 -157 25 -8 3 -3 28 17 87 64 184 103 370 121 582 26 305 -47
606 -194 802 -44 58 -128 142 -197 197 l-35 28 35 -7 c19 -3 81 -21 137 -39z
m-1483 -1430 c56 -8 184 -35 286 -60 545 -132 714 -164 1100 -211 124 -14 228
-29 232 -33 11 -10 -130 -179 -247 -296 -224 -222 -452 -351 -717 -406 -85
-17 -126 -20 -238 -16 -233 8 -399 67 -630 221 -142 95 -377 212 -531 265
-113 38 -189 54 -334 69 l-70 7 112 82 c218 162 474 332 522 348 141 46 329
58 515 30z m-965 -556 c36 -6 70 -15 74 -19 12 -10 -116 -126 -200 -181 -118
-77 -225 -87 -268 -26 -44 63 24 188 121 222 48 17 184 19 273 4z"/>
</g>
</svg>
